<?xml version="1.0" encoding="UTF-8"?>
<svg version="1.1" xmlns="http://www.w3.org/2000/svg" width="100" height="130">
<path d="M0 0 C4.33407985 1.73363194 5.7145399 2.34536754 8.70703125 5.44921875 C9.37669922 6.13306641 10.04636719 6.81691406 10.73632812 7.52148438 C11.42146484 8.23626953 12.10660156 8.95105469 12.8125 9.6875 C17.44145751 14.46706474 22.11498241 19.05247724 27.1628418 23.38989258 C29.73816635 25.64693782 32.10729351 28.04963794 34.5 30.5 C38.17725832 34.23306083 41.95387824 37.7651301 45.94140625 41.1640625 C50.14632503 44.91417982 54.0539476 48.98117205 58 53 C57 55 57 55 54.91796875 55.75390625 C53.56638672 56.15416016 53.56638672 56.15416016 52.1875 56.5625 C37.91862536 61.56491271 25.35701701 74.38439267 16 86 C15.195625 86.99 14.39125 87.98 13.5625 89 C8.25778407 95.64553374 3.7756485 102.34126584 0 110 C-0.66 110 -1.32 110 -2 110 C-3.71743884 105.51912898 -5.42616803 101.0350703 -7.12695312 96.54785156 C-7.70660738 95.02220674 -8.28862049 93.49745596 -8.87304688 91.97363281 C-9.71327319 89.78161382 -10.54492995 87.58650678 -11.375 85.390625 C-11.63748535 84.7113092 -11.8999707 84.03199341 -12.17041016 83.33209229 C-13.43567006 79.95965699 -14 77.66103982 -14 74 C-13.01 73.505 -13.01 73.505 -12 73 C-12.2165625 72.25234375 -12.433125 71.5046875 -12.65625 70.734375 C-12.9346875 69.74953125 -13.213125 68.7646875 -13.5 67.75 C-13.7784375 66.77546875 -14.056875 65.8009375 -14.34375 64.796875 C-15 62 -15 62 -15 58 C-14.01 58 -13.02 58 -12 58 C-12.2165625 57.25234375 -12.433125 56.5046875 -12.65625 55.734375 C-12.9346875 54.74953125 -13.213125 53.7646875 -13.5 52.75 C-13.7784375 51.77546875 -14.056875 50.8009375 -14.34375 49.796875 C-15 47 -15 47 -15 43 C-13.68 43 -12.36 43 -11 43 C-11.144375 42.40832031 -11.28875 41.81664062 -11.4375 41.20703125 C-12.40822694 37.07470059 -13.27593702 33.2770238 -13 29 C-11.68 29 -10.36 29 -9 29 C-9 23.39 -9 17.78 -9 12 C-3 13 -3 13 -1 14 C-0.67 9.38 -0.34 4.76 0 0 Z " fill="#FCCACA" transform="translate(33,8)"/>
<path d="M0 0 C4.33407985 1.73363194 5.7145399 2.34536754 8.70703125 5.44921875 C9.37669922 6.13306641 10.04636719 6.81691406 10.73632812 7.52148438 C11.42146484 8.23626953 12.10660156 8.95105469 12.8125 9.6875 C17.44145751 14.46706474 22.11498241 19.05247724 27.1628418 23.38989258 C29.73816635 25.64693782 32.10729351 28.04963794 34.5 30.5 C38.17725832 34.23306083 41.95387824 37.7651301 45.94140625 41.1640625 C50.14632503 44.91417982 54.0539476 48.98117205 58 53 C57.505 53.99 57.505 53.99 57 55 C54.83203125 55.31640625 54.83203125 55.31640625 52 55 C49.38671875 52.83984375 49.38671875 52.83984375 46.6875 49.9375 C43.52515632 46.60955524 40.38107966 43.34708757 36.875 40.375 C33.11834018 37.17033917 29.68490777 33.70113938 26.21875 30.1875 C23.60004468 27.60567785 20.84779502 25.22522224 18.0546875 22.8359375 C14.85258182 19.97474041 11.87624223 16.89718278 8.8828125 13.8203125 C7.12246661 11.93616102 7.12246661 11.93616102 5 11 C5 13.97 5 16.94 5 20 C1 21 1 21 -3 19 C-3 23.95 -3 28.9 -3 34 C-4.32 34 -5.64 34 -7 34 C-6.77183594 34.59167969 -6.54367188 35.18335938 -6.30859375 35.79296875 C-3.45342707 43.64147627 -3.45342707 43.64147627 -5 48 C-6.32 48 -7.64 48 -9 48 C-8.69964844 48.67546875 -8.39929688 49.3509375 -8.08984375 50.046875 C-7.70957031 50.93890625 -7.32929688 51.8309375 -6.9375 52.75 C-6.55464844 53.63171875 -6.17179687 54.5134375 -5.77734375 55.421875 C-4.95399992 58.15256309 -5.0226008 59.36901347 -6 62 C-6.99 62 -7.98 62 -9 62 C-8.62746094 62.81984375 -8.25492188 63.6396875 -7.87109375 64.484375 C-7.39800781 65.56203125 -6.92492188 66.6396875 -6.4375 67.75 C-5.96183594 68.81734375 -5.48617188 69.8846875 -4.99609375 70.984375 C-4.00912846 73.97236404 -3.68948085 75.18139601 -5 78 C-5.99 78.495 -5.99 78.495 -7 79 C-6.5831897 79.99797607 -6.5831897 79.99797607 -6.15795898 81.01611328 C-4.90245641 84.04630923 -3.6698523 87.08531973 -2.4375 90.125 C-1.78104492 91.69507812 -1.78104492 91.69507812 -1.11132812 93.296875 C-0.49741211 94.82441406 -0.49741211 94.82441406 0.12890625 96.3828125 C0.51119385 97.31496582 0.89348145 98.24711914 1.28735352 99.20751953 C2.29166862 103.14289336 1.81264906 106.37470188 0 110 C-0.66 110 -1.32 110 -2 110 C-3.71743884 105.51912898 -5.42616803 101.0350703 -7.12695312 96.54785156 C-7.70660738 95.02220674 -8.28862049 93.49745596 -8.87304688 91.97363281 C-9.71327319 89.78161382 -10.54492995 87.58650678 -11.375 85.390625 C-11.63748535 84.7113092 -11.8999707 84.03199341 -12.17041016 83.33209229 C-13.43567006 79.95965699 -14 77.66103982 -14 74 C-13.01 73.505 -13.01 73.505 -12 73 C-12.2165625 72.25234375 -12.433125 71.5046875 -12.65625 70.734375 C-12.9346875 69.74953125 -13.213125 68.7646875 -13.5 67.75 C-13.7784375 66.77546875 -14.056875 65.8009375 -14.34375 64.796875 C-15 62 -15 62 -15 58 C-14.01 58 -13.02 58 -12 58 C-12.2165625 57.25234375 -12.433125 56.5046875 -12.65625 55.734375 C-12.9346875 54.74953125 -13.213125 53.7646875 -13.5 52.75 C-13.7784375 51.77546875 -14.056875 50.8009375 -14.34375 49.796875 C-15 47 -15 47 -15 43 C-13.68 43 -12.36 43 -11 43 C-11.144375 42.40832031 -11.28875 41.81664062 -11.4375 41.20703125 C-12.40822694 37.07470059 -13.27593702 33.2770238 -13 29 C-11.68 29 -10.36 29 -9 29 C-9 23.39 -9 17.78 -9 12 C-3 13 -3 13 -1 14 C-0.67 9.38 -0.34 4.76 0 0 Z " fill="#121212" transform="translate(33,8)"/>
<path d="M0 0 C4.57750244 2.41189368 7.76684582 5.57062639 11.3125 9.25 C15.44283635 13.46382434 19.60805099 17.50767353 24.109375 21.328125 C27.14039449 24.00844802 29.93165619 26.92285224 32.76953125 29.8046875 C34.84168227 31.84417765 36.97251469 33.74331724 39.1875 35.625 C42.8843905 38.78847143 45.92490272 42.23300584 49 46 C46.69 46.66 44.38 47.32 42 48 C41.21689453 47.18208984 41.21689453 47.18208984 40.41796875 46.34765625 C35.47903381 41.28762659 30.3523316 36.68186528 24.83203125 32.265625 C21.95782835 29.96626268 19.13718953 27.60976829 16.3125 25.25 C8.38776176 18.73354608 8.38776176 18.73354608 -1 15 C-2.64093962 35.00229077 -3.72787643 55.35406686 1 75 C3.64041491 86.04725317 3.64041491 86.04725317 0.4375 91.8125 C-0.2740625 92.8953125 -0.2740625 92.8953125 -1 94 C-3.40132538 91.06936628 -4.77906492 88.36066942 -6.04296875 84.796875 C-6.39423828 83.8171875 -6.74550781 82.8375 -7.10742188 81.828125 C-7.46384766 80.81234375 -7.82027344 79.7965625 -8.1875 78.75 C-8.55552734 77.71875 -8.92355469 76.6875 -9.30273438 75.625 C-10.20803145 73.08546535 -11.10686478 70.54383199 -12 68 C-10.515 67.505 -10.515 67.505 -9 67 C-9.48157043 63.82163518 -10.27796884 61.35511229 -11.5625 58.375 C-13 55 -13 55 -13 52 C-11.515 51.505 -11.515 51.505 -10 51 C-10.82187261 46.61667943 -11.90154282 42.32059823 -13 38 C-11.02 37.505 -11.02 37.505 -9 37 C-9.51958285 32.62065881 -10.05675742 28.31196609 -11 24 C-9.68 24 -8.36 24 -7 24 C-7.33 18.72 -7.66 13.44 -8 8 C-5.525 8.99 -5.525 8.99 -3 10 C-2.01 10 -1.02 10 0 10 C0 6.7 0 3.4 0 0 Z " fill="#F4F4F4" transform="translate(37,18)"/>
<path d="M0 0 C11.08516077 1.19403478 20.158493 11.41452385 28.33300781 18.54589844 C29.46687214 19.5349576 30.60439212 20.5198381 31.74511719 21.50097656 C33.44547975 22.96752739 35.13076809 24.44964945 36.8125 25.9375 C37.33448975 26.38585205 37.85647949 26.8342041 38.39428711 27.29614258 C39.83203125 28.58984375 39.83203125 28.58984375 42 31 C42 32.32 42 33.64 42 35 C41.01 35.33 40.02 35.66 39 36 C38.55011719 35.52691406 38.10023437 35.05382812 37.63671875 34.56640625 C32.11656169 28.89137505 26.17012569 23.94782128 20 19 C17.16709451 16.65103369 14.33562088 14.30041261 11.5078125 11.9453125 C9.09429549 10.0731451 6.62919751 8.546619 4 7 C3.94986774 11.60406987 3.9139413 16.20797445 3.89013672 20.81225586 C3.88019372 22.37250543 3.86663453 23.93273696 3.84912109 25.49291992 C3.72397136 36.94412014 4.41125765 47.76206144 7.1875 58.9375 C8.02734086 62.56347958 8.14793836 65.37957902 7 69 C5.515 69.99 5.515 69.99 4 71 C3.36206894 68.9623367 2.74060266 66.91951978 2.125 64.875 C1.77695312 63.73804688 1.42890625 62.60109375 1.0703125 61.4296875 C-1.79067463 50.55135942 -2.30060064 39.56601037 -2.1875 28.375 C-2.18685547 27.15554687 -2.18621094 25.93609375 -2.18554688 24.6796875 C-2.08696147 4.17392294 -2.08696147 4.17392294 0 0 Z " fill="#100E0E" transform="translate(36,33)"/>
</svg>
