<svg width="186" height="70" viewBox="0 0 186 70" fill="none" xmlns="http://www.w3.org/2000/svg">
<ellipse cx="44" cy="32.5" rx="44" ry="32.5" fill="black"/>
<ellipse cx="145" cy="37.5" rx="41" ry="32.5" fill="black"/>
<ellipse cx="140.5" cy="38" rx="30.5" ry="27" fill="url(#paint0_linear_1_20)"/>
<ellipse cx="48" cy="32.5" rx="34" ry="27.5" fill="#0F0F0F"/>
<ellipse cx="49.5" cy="32.5" rx="32.5" ry="27.5" fill="url(#paint1_linear_1_20)"/>
<ellipse cx="159" cy="10.7394" rx="5.65231" ry="2.01404" transform="rotate(18.9377 159 10.7394)" fill="url(#paint2_radial_1_20)"/>
<ellipse cx="116.926" cy="54.1059" rx="3.61258" ry="1.18929" transform="rotate(45.1439 116.926 54.1059)" fill="url(#paint3_radial_1_20)"/>
<ellipse opacity="0.5" cx="1.8239" cy="0.856035" rx="1.8239" ry="0.856035" transform="matrix(-0.569167 -0.822222 -0.822222 0.569167 20.4839 44.9993)" fill="url(#paint4_radial_1_20)"/>
<path d="M93.5 28C88.3 28 86.6667 25.3333 86.5 24H84.5C84 31.5 83.3 46.1 84.5 44.5C85.7 42.9 89 42.5 90.5 42.5H100C102.8 42.5 105.167 43.8333 106 44.5C107.5 36.3333 110.1 20.8 108.5 24C106.9 27.2 102.833 28 101 28H93.5Z" fill="black"/>
<ellipse cx="100.707" cy="29.7069" rx="1.22451" ry="1.18929" transform="rotate(45.1439 100.707 29.7069)" fill="url(#paint5_radial_1_20)"/>
<ellipse cx="103.707" cy="29.7069" rx="1.22451" ry="1.18929" transform="rotate(45.1439 103.707 29.7069)" fill="url(#paint6_radial_1_20)"/>
<defs>
<linearGradient id="paint0_linear_1_20" x1="110" y1="38" x2="171" y2="38" gradientUnits="userSpaceOnUse">
<stop stop-color="#181818"/>
<stop offset="0.595" stop-color="#555555" stop-opacity="0.405"/>
<stop offset="1" stop-color="#7E7E7E" stop-opacity="0"/>
</linearGradient>
<linearGradient id="paint1_linear_1_20" x1="17" y1="32.5" x2="82" y2="32.5" gradientUnits="userSpaceOnUse">
<stop stop-color="#181818"/>
<stop offset="0.595" stop-color="#555555" stop-opacity="0.405"/>
<stop offset="1" stop-color="#7E7E7E" stop-opacity="0"/>
</linearGradient>
<radialGradient id="paint2_radial_1_20" cx="0" cy="0" r="1" gradientUnits="userSpaceOnUse" gradientTransform="translate(159 10.7394) rotate(90) scale(2.01404 5.65231)">
<stop stop-color="white"/>
<stop offset="1" stop-color="#999999" stop-opacity="0"/>
</radialGradient>
<radialGradient id="paint3_radial_1_20" cx="0" cy="0" r="1" gradientUnits="userSpaceOnUse" gradientTransform="translate(116.926 54.1059) rotate(90) scale(1.18929 3.61258)">
<stop stop-color="white"/>
<stop offset="1" stop-color="#999999" stop-opacity="0"/>
</radialGradient>
<radialGradient id="paint4_radial_1_20" cx="0" cy="0" r="1" gradientUnits="userSpaceOnUse" gradientTransform="translate(1.8239 0.856035) rotate(90) scale(0.856035 1.8239)">
<stop stop-color="white"/>
<stop offset="1" stop-color="#999999" stop-opacity="0"/>
</radialGradient>
<radialGradient id="paint5_radial_1_20" cx="0" cy="0" r="1" gradientUnits="userSpaceOnUse" gradientTransform="translate(100.707 29.7069) rotate(90) scale(1.18929 1.22451)">
<stop stop-color="white"/>
<stop offset="1" stop-color="#999999" stop-opacity="0"/>
</radialGradient>
<radialGradient id="paint6_radial_1_20" cx="0" cy="0" r="1" gradientUnits="userSpaceOnUse" gradientTransform="translate(103.707 29.7069) rotate(90) scale(1.18929 1.22451)">
<stop stop-color="white"/>
<stop offset="1" stop-color="#999999" stop-opacity="0"/>
</radialGradient>
</defs>
</svg>
